<!--?xml version="1.0" encoding="UTF-8"?-->
<svg width="1440px" height="960px" viewBox="0 0 1440 960" version="1.1" xmlns="http://www.w3.org/2000/svg" xmlns:xlink="http://www.w3.org/1999/xlink" style="background: rgb(255, 65, 54);">
    <g id="cover" stroke="none" stroke-width="1" fill="none" fill-rule="evenodd" stroke-linecap="round" stroke-linejoin="round">
        <path d="M932.013117,683.332346 C914.996702,707.597415 901.064048,724.393451 890.326616,733.720453 C873.681738,749.030114 855.847941,756.870741 836.750916,757.316653 C823.041184,757.316653 806.507768,753.414919 787.262128,745.499973 C767.953327,737.622187 750.208699,733.720453 733.983658,733.720453 C716.967243,733.720453 698.717324,737.622187 679.196746,745.499973 C659.646446,753.414919 643.896973,757.53961 631.855445,757.948363 C613.542364,758.728709 595.288729,750.665126 577.068533,733.720453 C565.439411,723.575945 550.89372,706.185359 533.468614,681.548696 C514.772849,655.239862 499.402345,624.732018 487.360816,589.950847 C474.464752,552.382724 468,516.0037 468,480.784048 C468,440.440119 476.716269,405.644085 494.174813,376.485126 C507.895691,353.063575 526.149326,334.587936 548.995163,321.024765 C571.841001,307.461595 596.525949,300.549952 623.109453,300.107756 C637.655144,300.107756 656.729877,304.607755 680.433966,313.451686 C704.071178,322.325343 719.248483,326.825343 725.902719,326.825343 C730.877605,326.825343 747.737974,321.563576 776.32035,311.073486 C803.3497,301.345163 826.162099,297.317087 844.850432,298.903792 C895.490986,302.991323 933.536421,322.957053 958.838121,358.927324 C913.547706,386.373235 891.143998,424.814604 891.589843,474.128805 C891.998534,512.540446 905.931189,544.504937 933.313498,569.884787 C945.722849,581.664308 959.581196,590.768354 975,597.234084 C971.656163,606.93268 968.126557,616.222523 964.374029,625.140772 C955.271362,646.172975 944.496776,665.533008 932.013117,683.332346 Z M848.231423,168.043352 C848.231423,198.150246 837.233915,226.260938 815.313205,252.27993 C788.859739,283.21139 756.862934,301.085047 722.165052,298.264651 C721.722922,294.65276 721.466562,290.851356 721.466562,286.856724 C721.466562,257.954166 734.04682,227.022705 756.387366,201.732038 C767.54092,188.926918 781.72622,178.279644 798.928404,169.786127 C816.093434,161.419323 832.32962,156.792238 847.599809,156 C848.045654,160.024731 848.231423,164.049834 848.231423,168.04298 L848.231423,168.043352 Z" id="Shape" fill="#FFFFFF" fill-rule="nonzero" opacity="0.5" class="XWvDOHGO_0"></path>
        <path d="M845,843 C845,781.144108 794.855892,731 733,731 C671.144108,731 621,781.144108 621,843" id="Oval" stroke="#FFFFFF" stroke-width="16" class="XWvDOHGO_1"></path>
        <path d="M895,157.886532 C884.415866,155.34567 873.36757,154 862.005392,154 C784.130265,154 721,217.213973 721,295.192361 C721,300.536107 721.29647,305.810518 721.873839,311" id="Oval-Copy-9" stroke="#FFFFFF" stroke-width="16" class="XWvDOHGO_2"></path>
        <path d="M679,292.95636 C690.595167,296.241742 702.832249,298 715.480067,298 C789.22109,298 849,238.231856 849,164.504114 C849,147.771953 845.921138,131.758768 840.298949,117" id="Oval-Copy-10" stroke="#FFFFFF" stroke-width="16" class="XWvDOHGO_3"></path>
        <path d="M979,388 C954.59169,336.020858 901.528828,300 840,300" id="Oval-Copy-7" stroke="#FFFFFF" stroke-width="16" class="XWvDOHGO_4"></path>
        <path d="M759,713.938563 C771.685378,740.015613 798.53432,758 829.605012,758 C872.901368,758 908,723.07821 908,680" id="Oval" stroke="#FFFFFF" stroke-width="16" class="XWvDOHGO_5"></path>
        <path d="M557,680 C557,723.07821 592.055389,758 635.298403,758 C666.481509,758 693.407016,739.840524 706,713.558099" id="Oval-Copy-3" stroke="#FFFFFF" stroke-width="16" class="XWvDOHGO_6"></path>
        <path d="M998.154524,344 C937.627318,356.039478 892,409.546971 892,473.732861 C892,546.781985 951.098413,606 1024,606" id="Oval-Copy" stroke="#FFFFFF" stroke-width="16" class="XWvDOHGO_7"></path>
        <path d="M468,476 C468,625.057102 559.330479,752.74896 689,806" id="Oval-Copy-2" stroke="#FFFFFF" stroke-width="16" class="XWvDOHGO_8"></path>
        <path d="M468,483 C468,410.746543 489.459898,343.513271 526.34405,287.345412" id="Oval-Copy-8" stroke="#FFFFFF" stroke-width="16" class="XWvDOHGO_9"></path>
        <path d="M799,806 C903.204695,748.318739 977.365877,642.802383 992,519" id="Oval-Copy-6" stroke="#FFFFFF" stroke-width="16" class="XWvDOHGO_10"></path>
        <path d="M510.705881,352.442473 C483.948439,386.643733 468,429.709388 468,476.5 C468,532.014611 490.449948,582.285756 526.766406,618.729997" id="Oval-2" stroke="#FFFFFF" stroke-width="16" class="XWvDOHGO_11"></path>
        <path d="M840,300 C785.12442,300 735.570356,322.784123 700.281637,359.408541" id="Oval-3" stroke="#FFFFFF" stroke-width="16" class="XWvDOHGO_12"></path>
        <path d="M747.742751,373.770278 C723.106197,329.754207 676.027832,300 622,300 C570.613177,300 525.513014,326.916391 500.029193,367.419492" id="Oval-4" stroke="#FFFFFF" stroke-width="16" class="XWvDOHGO_13"></path>
    </g>
<style>.XWvDOHGO_0{stroke-dasharray:2127 2129;stroke-dashoffset:2128;animation:XWvDOHGO_draw_0 5600ms ease-in-out 0ms infinite,XWvDOHGO_fade 5600ms linear 0ms infinite;}.XWvDOHGO_1{stroke-dasharray:352 354;stroke-dashoffset:353;animation:XWvDOHGO_draw_1 5600ms ease-in-out 0ms infinite,XWvDOHGO_fade 5600ms linear 0ms infinite;}.XWvDOHGO_2{stroke-dasharray:271 273;stroke-dashoffset:272;animation:XWvDOHGO_draw_2 5600ms ease-in-out 0ms infinite,XWvDOHGO_fade 5600ms linear 0ms infinite;}.XWvDOHGO_3{stroke-dasharray:296 298;stroke-dashoffset:297;animation:XWvDOHGO_draw_3 5600ms ease-in-out 0ms infinite,XWvDOHGO_fade 5600ms linear 0ms infinite;}.XWvDOHGO_4{stroke-dasharray:174 176;stroke-dashoffset:175;animation:XWvDOHGO_draw_4 5600ms ease-in-out 0ms infinite,XWvDOHGO_fade 5600ms linear 0ms infinite;}.XWvDOHGO_5{stroke-dasharray:211 213;stroke-dashoffset:212;animation:XWvDOHGO_draw_5 5600ms ease-in-out 0ms infinite,XWvDOHGO_fade 5600ms linear 0ms infinite;}.XWvDOHGO_6{stroke-dasharray:211 213;stroke-dashoffset:212;animation:XWvDOHGO_draw_6 5600ms ease-in-out 0ms infinite,XWvDOHGO_fade 5600ms linear 0ms infinite;}.XWvDOHGO_7{stroke-dasharray:390 392;stroke-dashoffset:391;animation:XWvDOHGO_draw_7 5600ms ease-in-out 0ms infinite,XWvDOHGO_fade 5600ms linear 0ms infinite;}.XWvDOHGO_8{stroke-dasharray:422 424;stroke-dashoffset:423;animation:XWvDOHGO_draw_8 5600ms ease-in-out 0ms infinite,XWvDOHGO_fade 5600ms linear 0ms infinite;}.XWvDOHGO_9{stroke-dasharray:208 210;stroke-dashoffset:209;animation:XWvDOHGO_draw_9 5600ms ease-in-out 0ms infinite,XWvDOHGO_fade 5600ms linear 0ms infinite;}.XWvDOHGO_10{stroke-dasharray:360 362;stroke-dashoffset:361;animation:XWvDOHGO_draw_10 5600ms ease-in-out 0ms infinite,XWvDOHGO_fade 5600ms linear 0ms infinite;}.XWvDOHGO_11{stroke-dasharray:292 294;stroke-dashoffset:293;animation:XWvDOHGO_draw_11 5600ms ease-in-out 0ms infinite,XWvDOHGO_fade 5600ms linear 0ms infinite;}.XWvDOHGO_12{stroke-dasharray:157 159;stroke-dashoffset:158;animation:XWvDOHGO_draw_12 5600ms ease-in-out 0ms infinite,XWvDOHGO_fade 5600ms linear 0ms infinite;}.XWvDOHGO_13{stroke-dasharray:299 301;stroke-dashoffset:300;animation:XWvDOHGO_draw_13 5600ms ease-in-out 0ms infinite,XWvDOHGO_fade 5600ms linear 0ms infinite;}@keyframes XWvDOHGO_draw{100%{stroke-dashoffset:0;}}@keyframes XWvDOHGO_fade{0%{stroke-opacity:1;}98.21428571428571%{stroke-opacity:1;}100%{stroke-opacity:0;}}@keyframes XWvDOHGO_draw_0{17.857142857142858%{stroke-dashoffset: 2128}35.714285714285715%{ stroke-dashoffset: 0;}100%{ stroke-dashoffset: 0;}}@keyframes XWvDOHGO_draw_1{18.543956043956044%{stroke-dashoffset: 353}36.401098901098905%{ stroke-dashoffset: 0;}100%{ stroke-dashoffset: 0;}}@keyframes XWvDOHGO_draw_2{19.230769230769234%{stroke-dashoffset: 272}37.08791208791209%{ stroke-dashoffset: 0;}100%{ stroke-dashoffset: 0;}}@keyframes XWvDOHGO_draw_3{19.91758241758242%{stroke-dashoffset: 297}37.77472527472527%{ stroke-dashoffset: 0;}100%{ stroke-dashoffset: 0;}}@keyframes XWvDOHGO_draw_4{20.604395604395602%{stroke-dashoffset: 175}38.46153846153847%{ stroke-dashoffset: 0;}100%{ stroke-dashoffset: 0;}}@keyframes XWvDOHGO_draw_5{21.291208791208792%{stroke-dashoffset: 212}39.14835164835165%{ stroke-dashoffset: 0;}100%{ stroke-dashoffset: 0;}}@keyframes XWvDOHGO_draw_6{21.978021978021978%{stroke-dashoffset: 212}39.83516483516483%{ stroke-dashoffset: 0;}100%{ stroke-dashoffset: 0;}}@keyframes XWvDOHGO_draw_7{22.664835164835164%{stroke-dashoffset: 391}40.52197802197803%{ stroke-dashoffset: 0;}100%{ stroke-dashoffset: 0;}}@keyframes XWvDOHGO_draw_8{23.35164835164835%{stroke-dashoffset: 423}41.208791208791204%{ stroke-dashoffset: 0;}100%{ stroke-dashoffset: 0;}}@keyframes XWvDOHGO_draw_9{24.03846153846154%{stroke-dashoffset: 209}41.895604395604394%{ stroke-dashoffset: 0;}100%{ stroke-dashoffset: 0;}}@keyframes XWvDOHGO_draw_10{24.725274725274723%{stroke-dashoffset: 361}42.582417582417584%{ stroke-dashoffset: 0;}100%{ stroke-dashoffset: 0;}}@keyframes XWvDOHGO_draw_11{25.412087912087912%{stroke-dashoffset: 293}43.26923076923077%{ stroke-dashoffset: 0;}100%{ stroke-dashoffset: 0;}}@keyframes XWvDOHGO_draw_12{26.098901098901095%{stroke-dashoffset: 158}43.956043956043956%{ stroke-dashoffset: 0;}100%{ stroke-dashoffset: 0;}}@keyframes XWvDOHGO_draw_13{26.785714285714285%{stroke-dashoffset: 300}44.642857142857146%{ stroke-dashoffset: 0;}100%{ stroke-dashoffset: 0;}}</style></svg>
